<svg width="289" height="53" viewBox="0 0 289 53" fill="none" xmlns="http://www.w3.org/2000/svg">
<path fill-rule="evenodd" clip-rule="evenodd" d="M73.9241 16.505C73.9241 25.0682 67.0043 32.0098 58.4684 32.0098C49.9326 32.0098 43.0129 25.0682 43.0129 16.505C43.0129 7.94178 49.9326 1 58.4684 1C67.0043 1 73.9241 7.94178 73.9241 16.505Z" fill="#3AC4FF"></path>
<path fill-rule="evenodd" clip-rule="evenodd" d="M73.9241 16.505C73.9241 25.0682 67.0043 32.0098 58.4684 32.0098C49.9326 32.0098 43.0129 25.0682 43.0129 16.505C43.0129 7.94178 49.9326 1 58.4684 1C67.0043 1 73.9241 7.94178 73.9241 16.505Z" fill="#079DDE" stroke="#079DDE" stroke-width="2"></path>
<path fill-rule="evenodd" clip-rule="evenodd" d="M104.69 4.1897H106.746V8.3441H110.858V4.1897H112.914V14.4726H110.858V9.96464H106.746V14.4726H104.69V4.1897Z" fill="#1E232A"></path>
<path fill-rule="evenodd" clip-rule="evenodd" d="M118.581 13.1171C120.094 13.1171 120.49 11.7619 120.49 10.4949C120.49 9.33098 119.874 8.2409 118.581 8.2409C117.304 8.2409 116.687 9.36045 116.687 10.4949C116.687 11.7471 117.083 13.1171 118.581 13.1171ZM118.581 6.70874C120.828 6.70874 122.546 8.22617 122.546 10.7306C122.546 12.9109 121.092 14.6493 118.581 14.6493C116.085 14.6493 114.631 12.9109 114.631 10.7306C114.631 8.22617 116.349 6.70874 118.581 6.70874Z" fill="#1E232A"></path>
<path fill-rule="evenodd" clip-rule="evenodd" d="M128.992 8.52079C128.64 8.35875 128.258 8.2409 127.656 8.2409C126.437 8.2409 125.659 9.21314 125.659 10.6422C125.659 12.0418 126.32 13.1171 127.7 13.1171C128.258 13.1171 128.875 12.9109 129.212 12.7636L129.301 14.3988C128.728 14.5756 128.14 14.6493 127.333 14.6493C124.851 14.6493 123.603 12.9551 123.603 10.6422C123.603 8.44713 124.895 6.70874 127.259 6.70874C128.052 6.70874 128.625 6.79713 129.168 6.95931L128.992 8.52079Z" fill="#1E232A"></path>
<path fill-rule="evenodd" clip-rule="evenodd" d="M130.607 3.42371H132.575V7.91692H132.604C133.103 7.18037 133.955 6.70884 134.983 6.70884C136.775 6.70884 137.553 7.97584 137.553 9.68477V14.4726H135.585V10.4213C135.585 9.49312 135.57 8.241 134.308 8.241C132.883 8.241 132.575 9.78789 132.575 10.7601V14.4726H130.607V3.42371Z" fill="#1E232A"></path>
<path fill-rule="evenodd" clip-rule="evenodd" d="M144.072 8.47659C143.47 8.27036 143.029 8.15251 142.31 8.15251C141.781 8.15251 141.15 8.34401 141.15 8.99217C141.15 10.2003 144.571 9.4341 144.571 12.1742C144.571 13.942 143 14.6493 141.4 14.6493C140.65 14.6493 139.887 14.5165 139.167 14.3252L139.285 12.7046C139.902 13.014 140.548 13.2055 141.223 13.2055C141.723 13.2055 142.515 13.014 142.515 12.2775C142.515 10.7895 139.094 11.8059 139.094 9.06583C139.094 7.4307 140.518 6.70874 142.06 6.70874C142.985 6.70874 143.588 6.85605 144.204 6.98863L144.072 8.47659Z" fill="#1E232A"></path>
<path fill-rule="evenodd" clip-rule="evenodd" d="M151.002 8.52079C150.65 8.35875 150.268 8.2409 149.666 8.2409C148.447 8.2409 147.669 9.21314 147.669 10.6422C147.669 12.0418 148.33 13.1171 149.71 13.1171C150.268 13.1171 150.885 12.9109 151.222 12.7636L151.31 14.3988C150.738 14.5756 150.15 14.6493 149.343 14.6493C146.861 14.6493 145.614 12.9551 145.614 10.6422C145.614 8.44713 146.905 6.70874 149.269 6.70874C150.062 6.70874 150.635 6.79713 151.18 6.95931L151.002 8.52079Z" fill="#1E232A"></path>
<path fill-rule="evenodd" clip-rule="evenodd" d="M152.617 3.42371H154.585V7.91692H154.614C155.114 7.18037 155.965 6.70884 156.993 6.70884C158.785 6.70884 159.563 7.97584 159.563 9.68477V14.4726H157.595V10.4213C157.595 9.49312 157.581 8.241 156.318 8.241C154.893 8.241 154.585 9.78789 154.585 10.7601V14.4726H152.617V3.42371Z" fill="#1E232A"></path>
<path fill-rule="evenodd" clip-rule="evenodd" d="M168.535 14.4726H166.67V13.4413H166.641C166.039 14.178 165.187 14.6494 164.159 14.6494C162.368 14.6494 161.589 13.3824 161.589 11.6736V6.88574H163.557V10.9369C163.557 11.8649 163.572 13.1172 164.835 13.1172C166.259 13.1172 166.567 11.5703 166.567 10.5981V6.88574H168.535V14.4726Z" fill="#1E232A"></path>
<path fill-rule="evenodd" clip-rule="evenodd" d="M170.605 14.4725H172.573V3.42371H170.605V14.4725Z" fill="#1E232A"></path>
<path fill-rule="evenodd" clip-rule="evenodd" d="M179.386 9.9351C179.327 8.97744 178.887 8.15251 177.786 8.15251C176.684 8.15251 176.126 8.91852 176.038 9.9351H179.386ZM180.708 14.0452C179.988 14.4429 179.166 14.6493 178.109 14.6493C175.612 14.6493 174.159 13.2055 174.159 10.7158C174.159 8.52079 175.319 6.70874 177.668 6.70874C180.473 6.70874 181.266 8.63863 181.266 11.2903H176.038C176.126 12.5131 176.978 13.2055 178.197 13.2055C179.151 13.2055 179.974 12.852 180.708 12.4395V14.0452Z" fill="#1E232A"></path>
<path fill-rule="evenodd" clip-rule="evenodd" d="M106.746 30.529H107.715C108.67 30.529 109.83 30.2934 109.83 29.1C109.83 27.7595 108.743 27.5533 107.715 27.5533H106.746V30.529ZM106.746 26.0211H107.583C108.45 26.0211 109.522 25.8296 109.522 24.7688C109.522 23.5756 108.479 23.4872 107.539 23.4872H106.746V26.0211ZM104.69 21.8667H108.273C109.595 21.8667 111.578 22.2497 111.578 24.5037C111.578 25.7265 110.755 26.5809 109.536 26.8018V26.8313C110.931 26.9639 111.886 27.9068 111.886 29.1737C111.886 31.7664 109.566 32.1494 108.273 32.1494H104.69V21.8667Z" fill="#1E232A"></path>
<path fill-rule="evenodd" clip-rule="evenodd" d="M116.951 30.7942C118.464 30.7942 118.86 29.439 118.86 28.172C118.86 27.0081 118.244 25.918 116.951 25.918C115.674 25.918 115.057 27.0376 115.057 28.172C115.057 29.4243 115.454 30.7942 116.951 30.7942ZM116.951 24.3859C119.198 24.3859 120.916 25.9033 120.916 28.4077C120.916 30.588 119.463 32.3264 116.951 32.3264C114.455 32.3264 113.001 30.588 113.001 28.4077C113.001 25.9033 114.719 24.3859 116.951 24.3859Z" fill="#1E232A"></path>
<path fill-rule="evenodd" clip-rule="evenodd" d="M122.458 24.5628H124.323V25.5939H124.352C124.969 24.7248 125.806 24.3859 126.834 24.3859C128.625 24.3859 129.404 25.6529 129.404 27.3618V32.1495H127.436V28.0983C127.436 27.1701 127.421 25.918 126.158 25.918C124.734 25.918 124.425 27.4649 124.425 28.4372V32.1495H122.458V24.5628Z" fill="#1E232A"></path>
<path fill-rule="evenodd" clip-rule="evenodd" d="M131.429 24.5628H133.294V25.5939H133.324C133.941 24.7248 134.778 24.3859 135.805 24.3859C137.597 24.3859 138.375 25.6529 138.375 27.3618V32.1495H136.407V28.0983C136.407 27.1701 136.393 25.918 135.13 25.918C133.706 25.918 133.397 27.4649 133.397 28.4372V32.1495H131.429V24.5628Z" fill="#1E232A"></path>
<path fill-rule="evenodd" clip-rule="evenodd" d="M139.902 28.9971H143.764V27.3766H139.902V28.9971Z" fill="#1E232A"></path>
<path fill-rule="evenodd" clip-rule="evenodd" d="M147.348 26.2569H148.023C149.036 26.2569 150.196 26.1095 150.196 24.8278C150.196 23.5904 149.051 23.4873 148.023 23.4873H147.348V26.2569ZM145.291 21.8668H147.509C149.712 21.8668 152.34 21.7931 152.34 24.651C152.34 25.8591 151.532 26.8608 150.226 27.0376V27.0672C150.784 27.1112 151.107 27.6712 151.312 28.1278L152.957 32.1495H150.666L149.433 28.938C149.139 28.172 148.875 27.8774 148.008 27.8774H147.348V32.1495H145.291V21.8668Z" fill="#1E232A"></path>
<path fill-rule="evenodd" clip-rule="evenodd" d="M154.262 21.1007H156.23V25.5939H156.259C156.76 24.8574 157.611 24.3858 158.639 24.3858C160.431 24.3858 161.209 25.6528 161.209 27.3618V32.1495H159.241V28.0983C159.241 27.1701 159.227 25.918 157.964 25.918C156.539 25.918 156.23 27.4649 156.23 28.4371V32.1495H154.262V21.1007Z" fill="#1E232A"></path>
<path fill-rule="evenodd" clip-rule="evenodd" d="M167.978 27.6122C167.919 26.6546 167.479 25.8296 166.378 25.8296C165.276 25.8296 164.717 26.5956 164.629 27.6122H167.978ZM169.3 31.7223C168.58 32.1202 167.758 32.3264 166.701 32.3264C164.203 32.3264 162.749 30.8826 162.749 28.393C162.749 26.1979 163.909 24.3859 166.26 24.3859C169.065 24.3859 169.858 26.3158 169.858 28.9675H164.629C164.717 30.1901 165.57 30.8826 166.787 30.8826C167.743 30.8826 168.566 30.5291 169.3 30.1165V31.7223Z" fill="#1E232A"></path>
<path fill-rule="evenodd" clip-rule="evenodd" d="M171.442 32.1495H173.41V24.5628H171.442V32.1495ZM171.442 23.1779H173.41V21.2922H171.442V23.1779Z" fill="#1E232A"></path>
<path fill-rule="evenodd" clip-rule="evenodd" d="M175.48 24.5628H177.345V25.5939H177.375C177.991 24.7248 178.828 24.3859 179.856 24.3859C181.649 24.3859 182.427 25.6529 182.427 27.3618V32.1495H180.46V28.0983C180.46 27.1701 180.444 25.918 179.181 25.918C177.756 25.918 177.448 27.4649 177.448 28.4372V32.1495H175.48V24.5628Z" fill="#1E232A"></path>
<path fill-rule="evenodd" clip-rule="evenodd" d="M183.953 28.9971H187.815V27.3766H183.953V28.9971Z" fill="#1E232A"></path>
<path fill-rule="evenodd" clip-rule="evenodd" d="M195.025 23.7524C194.379 23.4725 193.659 23.3105 192.94 23.3105C192.235 23.3105 191.324 23.6198 191.324 24.7394C191.324 26.522 195.818 25.7707 195.818 29.218C195.818 31.4718 194.041 32.3264 191.97 32.3264C190.854 32.3264 190.355 32.1791 189.342 31.9285L189.533 30.0723C190.238 30.4554 191.045 30.7057 191.853 30.7057C192.631 30.7057 193.674 30.3081 193.674 29.3799C193.674 27.4205 189.18 28.2309 189.18 24.8278C189.18 22.5296 190.957 21.6899 192.763 21.6899C193.644 21.6899 194.467 21.8078 195.216 22.0582L195.025 23.7524Z" fill="#1E232A"></path>
<path fill-rule="evenodd" clip-rule="evenodd" d="M197.55 32.1495H199.518V24.5628H197.55V32.1495ZM197.55 23.1779H199.518V21.2922H197.55V23.1779Z" fill="#1E232A"></path>
<path fill-rule="evenodd" clip-rule="evenodd" d="M206.331 27.6122C206.272 26.6546 205.832 25.8296 204.731 25.8296C203.629 25.8296 203.071 26.5956 202.983 27.6122H206.331ZM207.653 31.7223C206.933 32.1202 206.111 32.3264 205.054 32.3264C202.557 32.3264 201.104 30.8826 201.104 28.393C201.104 26.1979 202.264 24.3859 204.613 24.3859C207.418 24.3859 208.211 26.3158 208.211 28.9675H202.983C203.071 30.1901 203.923 30.8826 205.142 30.8826C206.096 30.8826 206.919 30.5291 207.653 30.1165V31.7223Z" fill="#1E232A"></path>
<path fill-rule="evenodd" clip-rule="evenodd" d="M214.73 28.2751C214.73 26.9786 214.231 25.918 213.086 25.918C211.75 25.918 211.324 27.1556 211.324 28.3193C211.324 29.3506 211.867 30.6175 212.998 30.6175C214.231 30.6175 214.73 29.542 214.73 28.2751ZM216.698 24.5628V31.4129C216.698 33.4754 215.876 35.4199 212.704 35.4199C211.926 35.4199 211.03 35.3022 210.09 34.9043L210.252 33.225C210.854 33.5491 211.838 33.8879 212.454 33.8879C214.628 33.8879 214.73 32.2527 214.73 30.9415H214.701C214.334 31.5897 213.453 32.1495 212.352 32.1495C210.12 32.1495 209.268 30.3523 209.268 28.3193C209.268 26.4925 210.208 24.3859 212.469 24.3859C213.468 24.3859 214.246 24.7248 214.789 25.5939H214.819V24.5628H216.698Z" fill="#1E232A"></path>
<path fill-rule="evenodd" clip-rule="evenodd" d="M112.121 46.2321C112.121 49.2668 109.904 50.0034 108.406 50.0034C106.908 50.0034 104.69 49.2668 104.69 46.2321V39.5437H105.704V46.2321C105.704 47.9114 106.629 49.1195 108.406 49.1195C110.183 49.1195 111.108 47.9114 111.108 46.2321V39.5437H112.121V46.2321Z" fill="#1E232A"></path>
<path fill-rule="evenodd" clip-rule="evenodd" d="M114.455 44.0813C114.455 43.5068 114.455 42.9175 114.396 42.3135H115.292V43.6541H115.321C115.63 42.9764 116.188 42.1367 117.744 42.1367C119.595 42.1367 120.3 43.3741 120.3 45.0241V49.8267H119.374V45.2598C119.374 43.8455 118.875 42.9322 117.597 42.9322C115.909 42.9322 115.38 44.4202 115.38 45.6723V49.8267H114.455V44.0813Z" fill="#1E232A"></path>
<path fill-rule="evenodd" clip-rule="evenodd" d="M122.619 49.8267H123.544V42.3135H122.619V49.8267ZM122.619 40.3099H123.544V39.0724H122.619V40.3099Z" fill="#1E232A"></path>
<path fill-rule="evenodd" clip-rule="evenodd" d="M128.478 49.8267H127.392L124.851 42.3135H125.864L127.935 48.8102H127.964L130.138 42.3135H131.107L128.478 49.8267Z" fill="#1E232A"></path>
<path fill-rule="evenodd" clip-rule="evenodd" d="M136.965 45.5397C136.965 44.2286 136.437 42.9322 135.056 42.9322C133.691 42.9322 132.854 44.3023 132.854 45.5397H136.965ZM137.421 49.5908C136.775 49.8561 135.937 50.0034 135.247 50.0034C132.766 50.0034 131.84 48.3241 131.84 46.07C131.84 43.7718 133.103 42.1367 134.998 42.1367C137.112 42.1367 137.979 43.8455 137.979 45.8639V46.3353H132.854C132.854 47.9264 133.705 49.208 135.321 49.208C135.996 49.208 136.98 48.9279 137.421 48.6481V49.5908Z" fill="#1E232A"></path>
<path fill-rule="evenodd" clip-rule="evenodd" d="M139.74 43.9928C139.74 43.1679 139.74 42.8585 139.682 42.3135H140.607V43.7573H140.636C140.974 42.9175 141.605 42.1367 142.56 42.1367C142.78 42.1367 143.045 42.1809 143.206 42.225V43.1973C143.015 43.1386 142.765 43.109 142.53 43.109C141.062 43.109 140.665 44.759 140.665 46.1143V49.8267H139.74V43.9928Z" fill="#1E232A"></path>
<path fill-rule="evenodd" clip-rule="evenodd" d="M144.057 48.7366C144.615 49.0165 145.291 49.208 146.01 49.208C146.892 49.208 147.67 48.7219 147.67 47.8673C147.67 46.0849 144.072 46.3648 144.072 44.1843C144.072 42.6965 145.276 42.1367 146.51 42.1367C146.907 42.1367 147.7 42.225 148.36 42.4755L148.272 43.2859C147.788 43.0649 147.127 42.9322 146.612 42.9322C145.658 42.9322 144.997 43.2268 144.997 44.1843C144.997 45.5839 148.684 45.4071 148.684 47.8673C148.684 49.4584 147.2 50.0034 146.069 50.0034C145.35 50.0034 144.63 49.9151 143.969 49.6499L144.057 48.7366Z" fill="#1E232A"></path>
<path fill-rule="evenodd" clip-rule="evenodd" d="M150.341 49.8267H151.266V42.3135H150.341V49.8267ZM150.341 40.3099H151.266V39.0724H150.341V40.3099Z" fill="#1E232A"></path>
<mask id="mask0_27482_3308" style="mask-type:alpha" maskUnits="userSpaceOnUse" x="152" y="40" width="12" height="13">
<path d="M152.735 40.1774H163.718V53H152.735V40.1774Z" fill="white"></path>
</mask>
<g mask="url(#mask0_27482_3308)">
<path fill-rule="evenodd" clip-rule="evenodd" d="M156.832 43.109H155.128V47.9704C155.128 48.6481 155.378 49.208 156.127 49.208C156.479 49.208 156.714 49.1343 156.979 49.0312L157.037 49.7972C156.817 49.8856 156.362 50.0035 155.907 50.0035C154.262 50.0035 154.203 48.8692 154.203 47.4991V43.109H152.735V42.3135H154.203V40.5014L155.128 40.1774V42.3135H156.832V43.109Z" fill="#1E232A"></path>
<path fill-rule="evenodd" clip-rule="evenodd" d="M160.723 50.9464C160.371 51.9775 159.842 53.0088 158.799 53.0088C158.462 53.0088 158.109 52.9646 157.801 52.891L157.889 52.0954C158.065 52.1543 158.241 52.2132 158.579 52.2132C159.372 52.2132 159.636 51.5503 159.93 50.5781L160.121 49.9151L157.463 42.3135H158.476L160.576 48.5893L160.561 48.5744H160.591L162.749 42.3135H163.718L160.723 50.9464Z" fill="#1E232A"></path>
</g>
<path fill-rule="evenodd" clip-rule="evenodd" d="M172.015 49.208C173.63 49.208 174.496 47.8084 174.496 46.07C174.496 44.3316 173.63 42.9322 172.015 42.9322C170.4 42.9322 169.533 44.3316 169.533 46.07C169.533 47.8084 170.4 49.208 172.015 49.208ZM172.015 42.1367C174.438 42.1367 175.51 44.0224 175.51 46.07C175.51 48.1177 174.438 50.0034 172.015 50.0034C169.592 50.0034 168.52 48.1177 168.52 46.07C168.52 44.0224 169.592 42.1367 172.015 42.1367Z" fill="#1E232A"></path>
<path fill-rule="evenodd" clip-rule="evenodd" d="M177.888 43.109H176.376V42.3135H177.888V41.7685C177.888 40.1922 177.947 38.6011 179.871 38.6011C180.164 38.6011 180.561 38.6454 180.737 38.7485L180.678 39.5587C180.487 39.4556 180.208 39.3965 179.944 39.3965C178.681 39.3965 178.814 40.7667 178.814 41.6654V42.3135H180.502V43.109H178.814V49.8267H177.888V43.109Z" fill="#1E232A"></path>
<path fill-rule="evenodd" clip-rule="evenodd" d="M189.959 40.5161L187.727 46.1879H192.176L189.959 40.5161ZM189.459 39.5437H190.605L194.672 49.8266H193.615L192.514 47.0718H187.345L186.244 49.8266H185.26L189.459 39.5437Z" fill="#1E232A"></path>
<path fill-rule="evenodd" clip-rule="evenodd" d="M199.077 42.9322C197.433 42.9322 196.86 44.7 196.86 46.07C196.86 47.4401 197.433 49.208 199.077 49.208C200.839 49.208 201.295 47.5285 201.295 46.07C201.295 44.6117 200.839 42.9322 199.077 42.9322ZM195.935 42.3135H196.86L196.801 43.6836H196.831C197.066 43.271 197.638 42.1367 199.224 42.1367C201.427 42.1367 202.308 43.7866 202.308 46.07C202.308 48.2947 201.28 50.0034 199.224 50.0034C198.05 50.0034 197.345 49.5172 196.89 48.5451H196.86V52.9203H195.935V42.3135Z" fill="#1E232A"></path>
<path fill-rule="evenodd" clip-rule="evenodd" d="M207.241 42.9322C205.597 42.9322 205.024 44.7 205.024 46.07C205.024 47.4401 205.597 49.208 207.241 49.208C209.004 49.208 209.459 47.5285 209.459 46.07C209.459 44.6117 209.004 42.9322 207.241 42.9322ZM204.099 42.3135H205.024L204.965 43.6836H204.995C205.23 43.271 205.802 42.1367 207.388 42.1367C209.591 42.1367 210.472 43.7866 210.472 46.07C210.472 48.2947 209.444 50.0034 207.388 50.0034C206.214 50.0034 205.509 49.5172 205.054 48.5451H205.024V52.9203H204.099V42.3135Z" fill="#1E232A"></path>
<path fill-rule="evenodd" clip-rule="evenodd" d="M212.352 49.8266H213.277V38.7777H212.352V49.8266Z" fill="#1E232A"></path>
<path fill-rule="evenodd" clip-rule="evenodd" d="M215.611 49.8267H216.536V42.3135H215.611V49.8267ZM215.611 40.3099H216.536V39.0724H215.611V40.3099Z" fill="#1E232A"></path>
<path fill-rule="evenodd" clip-rule="evenodd" d="M223.438 45.5397C223.438 44.2286 222.91 42.9322 221.529 42.9322C220.164 42.9322 219.327 44.3023 219.327 45.5397H223.438ZM223.893 49.5908C223.247 49.8561 222.41 50.0034 221.72 50.0034C219.239 50.0034 218.313 48.3241 218.313 46.07C218.313 43.7718 219.576 42.1367 221.471 42.1367C223.585 42.1367 224.451 43.8455 224.451 45.8639V46.3353H219.327C219.327 47.9264 220.178 49.208 221.794 49.208C222.469 49.208 223.453 48.9279 223.893 48.6481V49.5908Z" fill="#1E232A"></path>
<path fill-rule="evenodd" clip-rule="evenodd" d="M229.003 49.2079C230.648 49.2079 231.22 47.4401 231.22 46.0699C231.22 44.7 230.648 42.9321 229.003 42.9321C227.241 42.9321 226.786 44.6116 226.786 46.0699C226.786 47.5284 227.241 49.2079 229.003 49.2079ZM232.146 49.8266H231.22V48.6333H231.191C230.692 49.5908 229.928 50.0034 228.856 50.0034C226.801 50.0034 225.773 48.2946 225.773 46.0699C225.773 43.7865 226.654 42.1366 228.856 42.1366C230.325 42.1366 231.059 43.2121 231.191 43.5804H231.22V38.7777H232.146V49.8266Z" fill="#1E232A"></path>
<path fill-rule="evenodd" clip-rule="evenodd" d="M238.282 48.5156C238.886 48.8985 239.59 49.1196 240.545 49.1196C241.808 49.1196 242.85 48.4715 242.85 47.0128C242.85 44.9947 238.151 44.7443 238.151 42.0482C238.151 40.3983 239.59 39.3672 241.397 39.3672C241.896 39.3672 242.703 39.4408 243.408 39.706L243.247 40.6342C242.791 40.3836 242.072 40.251 241.382 40.251C240.325 40.251 239.165 40.693 239.165 42.0189C239.165 44.0814 243.863 44.0961 243.863 47.1013C243.863 49.1785 242.087 50.0035 240.501 50.0035C239.502 50.0035 238.723 49.7972 238.179 49.5615L238.282 48.5156Z" fill="#1E232A"></path>
<path fill-rule="evenodd" clip-rule="evenodd" d="M250.677 43.3152C250.177 43.0942 249.575 42.9322 249.076 42.9322C247.27 42.9322 246.257 44.2434 246.257 46.07C246.257 47.7791 247.285 49.208 248.973 49.208C249.561 49.208 250.104 49.0753 250.662 48.8692L250.75 49.7383C250.119 49.9593 249.531 50.0034 248.827 50.0034C246.418 50.0034 245.244 48.1619 245.244 46.07C245.244 43.7573 246.727 42.1367 248.944 42.1367C249.84 42.1367 250.486 42.343 250.75 42.4313L250.677 43.3152Z" fill="#1E232A"></path>
<path fill-rule="evenodd" clip-rule="evenodd" d="M252.32 49.8267H253.245V42.3135H252.32V49.8267ZM252.32 40.3099H253.245V39.0724H252.32V40.3099Z" fill="#1E232A"></path>
<path fill-rule="evenodd" clip-rule="evenodd" d="M260.146 45.5397C260.146 44.2286 259.618 42.9322 258.238 42.9322C256.872 42.9322 256.035 44.3023 256.035 45.5397H260.146ZM260.602 49.5908C259.956 49.8561 259.119 50.0034 258.428 50.0034C255.947 50.0034 255.022 48.3241 255.022 46.07C255.022 43.7718 256.285 42.1367 258.179 42.1367C260.293 42.1367 261.16 43.8455 261.16 45.8639V46.3353H256.035C256.035 47.9264 256.887 49.208 258.502 49.208C259.177 49.208 260.161 48.9279 260.602 48.6481V49.5908Z" fill="#1E232A"></path>
<path fill-rule="evenodd" clip-rule="evenodd" d="M262.922 44.0813C262.922 43.5068 262.922 42.9175 262.863 42.3135H263.759V43.6541H263.788C264.096 42.9764 264.654 42.1367 266.211 42.1367C268.061 42.1367 268.766 43.3741 268.766 45.0241V49.8267H267.841V45.2598C267.841 43.8455 267.341 42.9322 266.064 42.9322C264.375 42.9322 263.847 44.4202 263.847 45.6723V49.8267H262.922V44.0813Z" fill="#1E232A"></path>
<path fill-rule="evenodd" clip-rule="evenodd" d="M275.961 43.3152C275.462 43.0942 274.86 42.9322 274.36 42.9322C272.554 42.9322 271.541 44.2434 271.541 46.07C271.541 47.7791 272.569 49.208 274.258 49.208C274.845 49.208 275.388 49.0753 275.946 48.8692L276.034 49.7383C275.403 49.9593 274.816 50.0034 274.111 50.0034C271.703 50.0034 270.528 48.1619 270.528 46.07C270.528 43.7573 272.011 42.1367 274.228 42.1367C275.124 42.1367 275.77 42.343 276.034 42.4313L275.961 43.3152Z" fill="#1E232A"></path>
<path fill-rule="evenodd" clip-rule="evenodd" d="M282.172 45.5397C282.172 44.2286 281.643 42.9322 280.263 42.9322C278.898 42.9322 278.061 44.3023 278.061 45.5397H282.172ZM282.627 49.5908C281.981 49.8561 281.144 50.0034 280.454 50.0034C277.972 50.0034 277.047 48.3241 277.047 46.07C277.047 43.7718 278.31 42.1367 280.204 42.1367C282.319 42.1367 283.185 43.8455 283.185 45.8639V46.3353H278.061C278.061 47.9264 278.912 49.208 280.527 49.208C281.203 49.208 282.187 48.9279 282.627 48.6481V49.5908Z" fill="#1E232A"></path>
<path fill-rule="evenodd" clip-rule="evenodd" d="M284.374 48.7366C284.932 49.0165 285.608 49.208 286.327 49.208C287.208 49.208 287.987 48.7219 287.987 47.8673C287.987 46.0849 284.389 46.3648 284.389 44.1843C284.389 42.6965 285.593 42.1367 286.827 42.1367C287.223 42.1367 288.016 42.225 288.677 42.4755L288.589 43.2859C288.104 43.0649 287.443 42.9322 286.929 42.9322C285.975 42.9322 285.314 43.2268 285.314 44.1843C285.314 45.5839 289 45.4071 289 47.8673C289 49.4584 287.517 50.0034 286.386 50.0034C285.667 50.0034 284.947 49.9151 284.286 49.6499L284.374 48.7366Z" fill="#1E232A"></path>
<path d="M5.89177 16.3874C5.89177 21.7155 10.1977 26.0375 15.5127 26.0375C20.8277 26.0375 25.1336 21.7155 25.1336 16.3874C25.1336 11.0594 20.8277 6.73735 15.5127 6.73735C10.1977 6.73735 5.89177 11.0594 5.89177 16.3874ZM0.5 16.505C0.5 8.21641 7.1973 1.5 15.4554 1.5C23.7137 1.5 30.4111 8.21642 30.4111 16.505C30.4111 24.7934 23.7137 31.5098 15.4554 31.5098C7.1973 31.5098 0.5 24.7934 0.5 16.505Z" fill="#079DDE" stroke="#079DDE"></path>
</svg>